<svg viewBox="0 0 24 24" xmlns="http://www.w3.org/2000/svg">
    <style>
        @keyframes animation {
            0%{
                opacity: 0.2;
            }
            100% {
                opacity: 1;
            }
        }

        .star{
            animation: animation;
            animation-iteration-count: infinite;
            animation-duration: 4s;
            animation-timing-function: linear;
            animation-direction: alternate-reverse;
        }

        .star:nth-child(2n){
            animation-delay: 1.5s;
        }
    </style>
    <g style="fill:none;stroke:#f4ebc8;stroke-linecap:round;stroke-linejoin:round;stroke-width:2">
        <path
            d="m12 3h-.39c3.03 2.82 3.21 7.56.39 10.6-2.12 2.28-5.43 3.02-8.31 1.85 1.91 4.59 7.17 6.76 11.76 4.86 4.59-1.91 6.76-7.17 4.86-11.76-1.4-3.36-4.67-5.54-8.31-5.55z" />
        <path class="star" d="m7 4c0 1.1-.9 2-2 2 1.1 0 2 .9 2 2 0-1.1.9-2 2-2-1.1 0-2-.9-2-2" />
        <path class="star" d="m5 11h-2m1-1v2" />
    </g>
</svg>