<svg viewBox="0 0 24 24" xmlns="http://www.w3.org/2000/svg">
    <style>
        @keyframes animation {
            0%{
                transform: translateY(-2%);
            }
            100% {
                transform: translateY(2%);
            }
        }

        path{
            transform: translateY(-2%);
            animation: animation;
            animation-iteration-count: infinite;
            animation-duration: 2s;
            animation-timing-function: ease-in-out;
            animation-direction: alternate-reverse;
        }
    </style>
    <g style="fill:none;stroke:#ebebeb;stroke-linecap:round;stroke-linejoin:round;stroke-width:2">
        <path
            d="m3 16.9c.05-1.76 1.5-3.14 3.26-3.1.32-1.27 1.31-2.27 2.57-2.61 1.31-.4 2.73-.14 3.81.69 1.02.76 1.5 2.05 1.24 3.3h.69c1.33 0 2.41 1.08 2.41 2.41s-1.08 2.41-2.41 2.41h-8.31c-1.76.04-3.22-1.35-3.26-3.11z" />
        <path d="m10 7c.4-1.86 2.11-3.14 4-3 3.5 0 4 4 4 4s3 0 3 2.5c.03 1.35-1.04 2.47-2.39 2.5-.04 0-.07 0-.11 0" />
    </g>
</svg>