<svg xmlns="http://www.w3.org/2000/svg" viewBox="0 0 24 24">
  <style>
    @keyframes animation {
			0%{
                transform: rotate(0deg);
			}
			100% {
                transform: rotate(360deg);
			}
		}

    .rays {
      transform-origin: center;
			animation-name: animation;
			animation-iteration-count: infinite;
			animation-duration: 60s;
			animation-timing-function: linear;
		}
  </style>

  <defs>
    <mask id="b">
      <polygon points="24 16 24 0 0 0 0 7 24 16" fill="#fff" style="filter: blur(1px);" />
    </mask>
  </defs>

  <g fill="none" stroke-linecap="round" stroke-linejoin="round" stroke-width="2">
    <path d="m2,18.9c.05-1.76,1.5-3.14,3.26-3.1.32-1.27,1.31-2.27,2.57-2.61,1.31-.4,2.73-.14,3.81.69,1.02.76,1.5,2.05,1.24,3.3h.69c1.33,0,2.41,1.08,2.41,2.41s-1.08,2.41-2.41,2.41H5.26c-1.76.04-3.22-1.35-3.26-3.11h0Z" stroke="#ebebeb"/>
    <g mask="url(#b)">
      <path class="rays" d="m3.5,11.5h1M12.5,2.5v1m8,8h1m-9,8v1M6.1,5.1l.7.7m12.1-.7l-.7.7m0,11.4l.7.7m-12.1-.7l-.7.7" stroke="#fc0"/>
    </g>
    <path d="m9,9.5c1.11-1.91,3.57-2.57,5.49-1.46,1.92,1.11,2.58,3.55,1.47,5.46" stroke="#fc0"/>
  </g>
</svg>