<svg viewBox="0 0 24 24" xmlns="http://www.w3.org/2000/svg">
    <style>
        @keyframes animation {
            0%{
                opacity: 0.2;
            }
            100% {
                opacity: 1;
            }
        }

        .star{
            animation: animation;
            animation-iteration-count: infinite;
            animation-duration: 4s;
            animation-timing-function: linear;
            animation-direction: alternate-reverse;
        }

        .star:nth-child(2n){
            animation-delay: 1s;
        }
    </style>
    <g fill="none" stroke-linecap="round" stroke-linejoin="round" stroke-width="2">
        <path
            d="m5 15.9c.05-1.76 1.5-3.14 3.26-3.1.32-1.27 1.31-2.27 2.57-2.61 1.31-.4 2.73-.14 3.81.69 1.02.76 1.5 2.05 1.24 3.3h.69c1.33 0 2.41 1.08 2.41 2.41s-1.08 2.41-2.41 2.41h-8.32c-1.76.04-3.22-1.35-3.26-3.11z"
            stroke="#ebebeb" />
        <g stroke="#f4ebc8">
            <path d="m12 6.46c1.1-1.91 3.55-2.57 5.46-1.46s2.57 3.55 1.46 5.46" />
            <path class="star" d="m5 10h-2m1-1v2" />
            <path class="star" d="m9 6h-2m1-1v2" />
        </g>
    </g>
</svg>