<svg viewBox="0 0 24 24" xmlns="http://www.w3.org/2000/svg">
    <circle cx="12" cy="12" fill="#f4ebc8" r="9" />
    <path
        d="m12 20c-4.42 0-8-3.58-8.01-7.99 0-3.15 1.84-6 4.71-7.3-1.82 4.03-.03 8.77 4 10.58 1.04.47 2.16.71 3.3.71s2.26-.24 3.29-.71c-1.3 2.86-4.15 4.7-7.29 4.71z"
        opacity=".03" />
    <circle cx="16.66" cy="9.5" opacity=".03" r="1" />
    <circle cx="14" cy="11" opacity=".03" r=".68" />
    <circle cx="15.73" cy="14.26" opacity=".03" r=".68" />
    <circle cx="10.69" cy="9.85" opacity=".03" r=".31" />
    <circle cx="15" cy="6.73" opacity=".03" r=".31" />
    <circle cx="17.65" cy="12.5" opacity=".03" r=".31" />
    <circle cx="12.77" cy="13.28" opacity=".03" r=".31" />
    <circle cx="11" cy="6.5" opacity=".03" r="1" />
</svg>